<svg width="56" height="56" fill="none" xmlns="http://www.w3.org/2000/svg"><path d="M45.259 27.593c0 1.084-.385 2.032-1.156 2.844L23.728 50.781c-.771.77-1.709 1.156-2.813 1.156s-2.041-.385-2.812-1.156l-2.375-2.344c-.771-.813-1.156-1.76-1.156-2.844 0-1.104.385-2.041 1.156-2.812l15.187-15.188-15.187-15.156c-.771-.813-1.156-1.76-1.156-2.844 0-1.104.385-2.041 1.156-2.812l2.375-2.344c.75-.792 1.687-1.187 2.812-1.187 1.125 0 2.063.395 2.813 1.187l20.375 20.344c.77.77 1.156 1.708 1.156 2.812z" fill="#C53030"/></svg>