<svg xmlns="http://www.w3.org/2000/svg" version="1.0" width="602.362" height="176.386"><path fill="#ffcc01" d="M8.86 8.846h584.642V167.54H8.86V8.846z"/><path d="M159.295 45.973l-51.047 1.354c-26.022 15.884-45.894 56.435-49.113 80.92h43.893c3.32-22.338 16.66-58.616 56.267-82.274zm206.442 16.468v60.682h10.151v-5.253c2.998 4.058 7.677 6.22 12.504 6.22 12.496 0 17.628-10.508 17.628-21.914 0-11.49-4.722-21.688-17.177-21.688-5.512 0-9.792 2.622-12.632 6.541V62.441h-10.474zm138.8 0v60.682h10.827v-20.206h.161l13.922 20.206h13.76l-17.466-23.042 15.533-18.627H528.48l-12.955 16.661h-.16V62.441h-10.829zm-292.842 4.221v56.461h11.344v-21.43h4.77c12.136 0 21.752-4.762 21.752-17.95 0-13.513-11.258-17.08-23.557-17.08h-14.309zm138.348 2.997l-10.86 3.48v8.315h-7.993v7.928h7.993v21.205c0 8.252 4.713 13.503 13.212 13.503 3.235 0 5.723-.321 7.993-.967l-.323-8.572c-1.132.73-2.987 1.128-4.93 1.128-4.126 0-5.092-3.302-5.092-6.865V89.382h9.603v-7.928h-9.603V69.66zm-127.004 5.898h3.964c5.825 0 10.763 2.276 10.763 8.83 0 6.552-5.098 8.411-10.763 8.411h-3.964V75.557zm-40.541 3.964s-17.2.244-17.306.322c-12.46 9.114-20.897 26.487-23.17 39.896h13.116c1.231-7.618 7.155-27.552 27.36-40.218zm89.428.548c-12.3 0-21.753 8.498-21.753 22.526 0 12.217 8 21.946 21.753 21.946 13.837 0 21.85-9.73 21.85-21.946 0-14.03-9.47-22.526-21.85-22.526zm43.602.419c-8.493 0-16.338 3.972-16.338 12.955 0 15.049 18.852 9.452 18.852 17.627 0 4.046-4.37 5.092-7.122 5.092-3.724 0-7.27-1.04-10.667-2.74l-.644 8.895c3.965 1.052 8.152 1.773 12.278 1.773 8.82 0 17.499-3.857 17.499-13.568 0-15.049-18.853-10.862-18.853-17.498 0-3.56 3.468-4.609 6.381-4.609 3.965 0 6.381.638 9.7 1.773l.742-8.154c-3.396-.728-6.726-1.546-11.828-1.546zm114.114 0c-4.613 0-10.295 1.214-14.502 3.158l.322 9.313c3.644-2.748 8.282-4.544 12.89-4.544 6.396 0 9.379 2.274 9.379 8.991h-5.994c-4.533 0-9.86.394-13.987 2.417-4.125 2.024-7.122 5.662-7.122 11.892 0 7.93 7.204 12.407 14.567 12.407 4.936 0 10.35-2.606 12.858-7.219h.161c.08 1.298.077 4.033.484 6.22h9.539a184.089 184.089 0 01-.484-9.281c-.08-3.074-.16-6.235-.16-10.442v-5.35c0-12.294-5.251-17.562-17.951-17.562zm51.433 0c-5.66 0-10.266 1.864-13.664 6.638h-.16v-5.672H456.97v41.669h10.828v-20.367c0-5.339 1.69-13.857 9.539-13.857 6.958 0 7.058 6.89 7.058 11.988v22.236h10.828V96.826c0-9.384-4.276-16.338-14.148-16.338zm-209.149 8.024c7.122 0 10.538 6.146 10.538 12.73 0 7.168-2.203 14.856-10.538 14.856-8.254 0-10.409-7.77-10.409-14.857 0-6.418 3.37-12.73 10.41-12.73zm114.081.387c7.04 0 9.153 7.692 9.153 13.277 0 5.741-2.192 13.503-9.314 13.503-7.204 0-9.603-7.599-9.603-13.503 0-5.826 2.806-13.277 9.764-13.277zm47.019 14.985h4.705c0 3.239-.474 6.226-2.256 8.572-1.696 2.265-4.288 3.706-7.605 3.706-3.883-.002-6.897-1.535-6.897-5.092 0-6.395 7.197-7.186 12.053-7.186z" fill="#010166" fill-rule="evenodd"/><path d="M143.33 66.989l29.916-.838c-24.558 12.964-36.795 40.176-38.85 56.981h-22.75C113.57 109.354 123 82.234 143.33 66.99z" fill="red"/></svg>