<svg xmlns="http://www.w3.org/2000/svg" width="655.804" height="61.221"><path d="M114.016 14.883h-24.76c-2.695 0-5.61.138-8.34.73-4.63.998-9.299 3.8-11.834 7.9-1.49 2.41-2.194 5.182-2.557 7.99-.652 5.087.225 10.443 2.496 15.042 2.12 4.298 6.086 8.815 10.266 11.251 4.116 2.397 9.092 3.425 14.5 3.425h17.396l2.833-46.338zM83.321 30.267c1.408-1.93 4.427-3.675 7.295-3.675h5.939l-.881 13.924-.575 9.545c-8.374 0-17.289-12.214-11.778-19.794m197.148 0c1.404-1.93 4.423-3.675 7.29-3.675h5.939l-.877 13.924-.574 9.545c-8.38 0-17.29-12.214-11.778-19.794m30.695-15.384h-24.76c-2.696 0-5.611.138-8.34.73-4.63.998-9.3 3.8-11.835 7.9-1.49 2.41-2.198 5.182-2.557 7.99-.656 5.087.225 10.443 2.497 15.042 2.12 4.298 6.08 8.815 10.266 11.251 4.116 2.397 9.091 3.425 14.499 3.425h17.397l2.833-46.338zm-81.538 17.79c.665-3.891 3.33-7.779 8.02-7.779 4.164 0 6.53 2.562 6.215 7.779h-14.235zm26.04 14.494c-4.86 1.417-10.073 2.92-15.195 2.92-5.731-.004-11.739-2.565-11.329-9.372h30.212l.328-5.48c.764-12.729-7.468-20.244-21.79-20.244-16.062 0-24.29 9.813-25.084 23.072-.812 13.436 5.55 23.158 23.785 23.158 6.767.004 11.842-.617 16.68-1.68l2.392-12.374zm295.533-32.18h15.664l-.436 7.338.164.177c5.386-5.671 11.074-7.619 17.6-7.619 9.398 0 16.641 3.987 15.963 15.328l-1.853 31.01h-16.537l1.473-24.63c.233-3.9-1.27-7.883-6.487-7.883-3.91 0-8.785 2.389-10.327 11.808-.242 1.495-.324 3.015-.488 4.522l-.963 16.183h-16.538l2.765-46.234zM623.51 35.35l13.842-20.364h18.45l-15.336 20.54c4.293 8.241 9.67 17.454 14.659 25.694h-18.187c-4.181-8.3-8.803-17.803-13.428-25.87m-78.277-20.468h-24.76c-2.696 0-5.61.138-8.34.73-4.63.998-9.3 3.8-11.83 7.9-1.49 2.41-2.198 5.182-2.561 7.99-.652 5.087.224 10.443 2.496 15.042 2.12 4.298 6.086 8.815 10.266 11.251 4.116 2.397 9.092 3.425 14.5 3.425H542.4l2.833-46.338zM514.54 30.267c1.408-1.93 4.427-3.675 7.295-3.675h5.939l-.882 13.924-.574 9.545c-8.374 0-17.284-12.214-11.778-19.794M460.064 12.88h6.289c3.99 0 9.57 0 9.277 4.868-.45 7.489-6.53 7.03-11.493 7.035l-4.785-.004.712-11.899zm-1.42 23.72h8.236c4.694 0 9.652 0 9.281 6.223-.389 6.492-5.533 6.583-10.85 6.583h-7.44l.772-12.806zm-19.29 24.622h30.92c12.931 0 22.761-2.885 23.556-16.053.5-8.388-4.483-13.89-11.787-14.702l.01-.181c7.557-1.896 11.073-7.395 11.505-14.52.648-10.824-8.513-14.703-13.648-14.703h-36.94l-3.615 60.16zM42.547 44.006L41.51 61.22h18.277l3.611-60.159H45.124l-1.61 26.782H20.282l1.606-26.782H3.611L0 61.222h18.274l1.036-17.216h23.236zm77.569-29.02h15.664l-.436 7.339.164.177c5.386-5.671 11.07-7.619 17.6-7.619 9.398 0 16.641 3.987 15.963 15.328l-1.853 31.01H150.68l1.473-24.63c.233-3.9-1.27-7.883-6.492-7.883-3.908 0-8.78 2.389-10.322 11.808-.242 1.495-.328 3.015-.492 4.522l-.96 16.183H117.35l2.765-46.234zm65.877 25.53c-4.31-3.213-9.2-7.325-8.82-13.67.363-6.024 4.635-11.963 17.69-11.963 4.959 0 10.051.708 14.789 1.507l.751 12.137c-3.057-1.24-6.318-2.035-9.886-2.035-3.045 0-6.266 0-6.409 2.389-.199 3.321 8.08 5.783 12.27 11.635 2.056 2.868 3.084 5.097 2.864 8.832-.532 8.863-11.156 11.873-18.9 11.873-5.222 0-10.396-.799-15.38-1.861l-1.14-12.936c3.995 1.599 8.253 3.192 12.516 3.192 1.913 0 5.835-.09 5.99-2.66.147-2.462-4.66-5.192-6.335-6.44m135.935-13.924h-6.44l.7-11.605h6.44l.418-7.014 16.75-3.546-.636 10.56h9.835l-.696 11.605h-9.834l-.985 17.414c.104 2.898 1.235 4.548 4.54 4.548 2.085 0 4.029-.445 6.253-1.24l-2.578 12.49c-3.714.977-7.485 1.417-11.312 1.417-8.352 0-14.395-2.302-13.807-12.05l1.352-22.58zm49.123-11.605h-16.533l-2.764 46.234h16.533l2.764-46.234zm-16.256-4.535h16.533L371.953 0H355.42l-.626 10.452zm20.195 33.554c-.168-2.207-.332-4.315-.198-6.53.678-11.338 6.664-22.593 22.674-22.593 6.267 0 10.936.531 15.302 1.685l.851 13.38c-3.753-1.24-7.515-2.397-11.255-2.397-6.876 0-10.685 3.99-11.074 10.456-.117 2.008.164 4.137.946 5.999 1.309 3.118 4.54 4.548 8.953 4.548 3.654 0 7.377-1.153 11.108-2.393l-2.634 13.467a52.849 52.849 0 01-12.888 1.593c-12.093 0-20.238-5.666-21.785-17.215m247.343-3.49l2.367-39.454h-16.533l-2.579 42.944-1.023 17.185h16.533l1.235-20.675z" fill="#e2001a"/></svg>