<svg xmlns="http://www.w3.org/2000/svg" version="1.0" width="879" height="152" viewBox="-0.021 -0.699 879 152"><path d="M824.326 66.201h21.587l-24.775 67.627c10.122-2.48 19.199-8.115 26.323-15.928 9.946-10.898 16.099-25.986 16.104-42.676h-.029v-.03h.029c0-16.689-6.162-31.782-16.113-42.686-9.766-10.703-23.203-17.329-37.988-17.334v.029h-.025v-.029c-14.79 0-28.232 6.631-38.003 17.339-9.946 10.903-16.104 25.991-16.108 42.671h.029v.044h-.029c.005 8.491 1.611 16.597 4.512 23.96a62.137 62.137 0 003.208 6.875v.02a64.754 64.754 0 002.51 4.219l16.172-43.965 31.636-.098-28.672 79.092c-.889-.293-1.406-.479-2.246-.859-13.76-6.328-25.244-17.334-32.749-31.172h-.015a78.042 78.042 0 01-3.979-8.584c-3.55-9.023-5.518-18.994-5.522-29.487h-.029v-.044h.029c.005-20.625 7.656-39.326 20.024-52.886C772.761 8.544 790.168.028 809.44.028V0h.025v.029c19.268.005 36.665 8.516 49.214 22.266 12.378 13.555 20.029 32.266 20.034 52.9h.029v.03h-.029c-.005 20.635-7.656 39.336-20.024 52.891-12.222 13.398-29.048 21.816-47.72 22.256-6.045.137-11.636-.4-16.753-2.324l30.11-81.847z" fill="#039"/><path d="M13.584 113.359c.098 3.75 1.978 10.859 14.326 10.859 6.699 0 14.146-1.592 14.146-8.711 0-5.234-5.093-6.641-12.231-8.32l-7.256-1.689c-10.928-2.529-21.445-4.951-21.445-19.746 0-7.48 4.038-20.713 25.967-20.713 20.732 0 26.299 13.506 26.396 21.748H39.902c-.381-2.998-1.504-10.112-13.853-10.112-5.366 0-11.772 1.968-11.772 8.052 0 5.244 4.331 6.357 7.153 7.021l16.475 4.014c9.243 2.256 17.729 5.996 17.729 18.066 0 20.244-20.747 22.021-26.68 22.021C4.243 135.85 0 121.689 0 113.359h13.584zM66.543 66.738h14.15v67.412h-14.15V66.738zM125.635 97.803h28.32v36.348h-9.443l-1.416-8.564c-3.589 4.141-8.779 10.254-21.064 10.254-16.323 0-31.094-11.67-31.094-35.215 0-18.34 10.254-35.674 33.076-35.586 20.752 0 28.955 13.418 29.707 22.666H139.58c0-2.617-4.814-11.03-14.883-11.03-10.059 0-19.365 6.919-19.365 24.136 0 18.33 10.059 23.076 19.644 23.076 3.11 0 13.496-1.211 16.421-14.697h-15.762V97.803zM209.854 66.738h13.154v67.412h-14.092L181.26 86.084h-.191v48.066H167.92V66.738h14.844l26.904 46.944h.186V66.738zM263.398 81.953h.195l8.384 26.68h-17.246l8.667-26.68zm-12.436 38.311h24.971l4.336 13.887h15.361l-23.843-67.412h-16.304l-24.121 67.412h14.888l4.712-13.887zM318.818 121.963h33.672v12.187h-47.812V66.738h14.14v55.225zM386.104 66.738h14.15v67.412h-14.15V66.738zM428.555 78.369h13.623c6.06 0 15.615 1.597 15.615 21.514 0 11.084-3.882 22.646-15.43 22.646h-13.809v-44.16h.001zm-13.838 55.781h29.355c22.378 0 28.12-20.84 28.12-35.303 0-12.773-4.707-32.109-27.554-32.109h-29.922v67.412h.001zM536.992 110.488c0 17.725-10.723 25.352-27.778 25.352-6.221 0-15.454-1.504-21.475-8.193-3.672-4.131-5.078-9.57-5.269-16.309v-44.6h14.395V110.4c0 9.365 5.464 13.486 12.065 13.486 9.707 0 13.667-4.688 13.667-12.832V66.738h14.395v43.75zM592.271 66.738h13.149v67.412h-14.092l-27.656-48.066h-.191v48.066h-13.149V66.738h14.854l26.899 46.944h.186V66.738zM645.815 81.953h.19l8.384 26.68h-17.246l8.672-26.68zm-12.441 38.311h24.976l4.336 13.887h15.361l-23.848-67.412H637.9l-24.126 67.412h14.893l4.707-13.887z" fill-rule="evenodd"/></svg>