<svg xmlns="http://www.w3.org/2000/svg" version="1.0" width="191.299" height="52.589"><defs><clipPath id="d"><path d="M985.852 805.57v-56.451h153.039v56.451"/></clipPath><clipPath id="c"><path d="M981.241 811.803h159.706v-53.858H981.241v53.858z"/></clipPath><clipPath id="b"><path d="M-31.179 841h1774.49V-.89H-31.179V841z"/></clipPath><clipPath id="a"><path d="M-31.179 841.89h1774.5V0h-1774.5v841.89z"/></clipPath></defs><g clip-path="url(#a)" transform="matrix(1.25 0 0 -1.25 -1232.315 1006.962)"><g clip-path="url(#b)"><g clip-path="url(#c)"><g fill="#be2f37" clip-path="url(#d)"><path d="M1041.661 796.777s.71-1.238 2.59-3.3c.8-.872 1.95-2.052 3.25-2.91 1.24-.922 2.69-1.79 4.07-2.385 2.83-1.3 6.46-2.191 10.57-1.94 2.07.127 2.91.476 2.91.476s-2.1.161-3.91.899c-1.69.671-2.58 1.369-3.61 2.105-.96.692-2.299 2.167-3.01 3.252-.9 1.371-1.23 2.568-1.23 2.568s-1.84-.261-3.18-.283c-1.43-.024-3.43.024-4.93.424-1.8.477-3.52 1.094-3.52 1.094M1058.821 800.816c0 2.63 2.14 4.76 4.77 4.754a4.756 4.756 0 004.75-4.772c0-2.63-2.14-4.76-4.77-4.754a4.756 4.756 0 00-4.75 4.772"/><path d="M1060.691 788.739c1.93.579 3.351 1.326 4.94 2.527 1.311.984 1.9 1.697 2.8 3.033.74 1.102 1.08 1.794 1.53 3.045.38 1.045.53 1.665.69 2.764 1.74-.45 2.901-.562 4.65-.588 2.05-.03 3.05.155 4.96.544 0 0-.14-.524-.61-1.519-.52-1.059-1.03-2.107-1.579-2.946-1.041-1.596-1.711-2.477-3.121-3.767-1.24-1.144-1.889-1.779-3.32-2.579-1.299-.726-2.09-1.092-3.549-1.39-1.181-.242-1.881-.27-3.091-.193-1.73.11-2.64.385-4.3 1.069"/><path d="M992.271 776.287c.29-1.063.57-2.126.88-3.168.31-1.039.66-2.058 1.01-3.076l-4.07-.024 2.18 6.268zm-.47-7.637c.51 0 1.04.022 1.56.022.371 0 .72-.022 1.09-.068.26-.864.51-1.726.75-2.59.17-.664.33-1.349.48-2.037.691.067 1.37.113 2.071.113.569 0 1.149-.046 1.719-.068-.26.686-.53 1.351-.76 2.058-.35.975-.63 1.994-.959 2.99-.27.818-.541 1.613-.801 2.411-.33 1.02-.599 2.061-.91 3.1-.24.886-.51 1.749-.77 2.634-.23.841-.46 1.66-.68 2.479-.41-.023-.82-.066-1.23-.066-.499 0-.97.066-1.44.11a74.212 74.212 0 00-1.13-3.587c-.51-1.483-1.09-2.921-1.66-4.381-.55-1.417-1.09-2.877-1.7-4.295-.47-1.128-1.03-2.257-1.579-3.385 1.309.065 1.449.022 2.229-.068.27.864.54 1.728.82 2.569.23.708.47 1.372.701 2.059h2.199" fill-rule="evenodd"/><path d="M1005.291 765.786c-.02 2.235-.039 4.472-.02 6.707 0 2.39.11 4.803.21 7.193-.6-.044-1.17-.088-1.77-.088-.609 0-1.25.066-1.86.133.02-.886.06-1.749.08-2.633v-2.37c-.02-1.504-.04-3.032-.04-4.515 0-2.081-.09-4.162-.17-6.243 1.34.045 2.67.112 4.011.112 1.429 0 2.889-.089 4.319-.2l.03 2.126-4.79-.222M1013.301 775.804c.02-2.038 0-4.143 0-6.203 0-3.199-.02-3.659-.25-5.544.96.11 1.47.153 1.94.153.75 0 1.7-.176 1.86-.197-.06.701-.1 1.403-.14 2.104-.08 1.446-.1 2.914-.1 4.36 0 2.434 0 4.843.02 7.254.69 0 1.4-.022 2.091-.066.609-.044 1.219-.132 1.829-.198-.04.483-.08.702-.08 1.162 0 .351.021.702.06 1.03-1.7-.022-3.41-.043-5.12-.043-2.07 0-4.159.043-6.26.109.091-.92.11-1.205.04-2.192l2.12.198c.65.022 1.28.043 1.93.043l.06-1.97M1026.341 777.915c.82 0 1.61 0 2.42-.044.77-.043 1.57-.132 2.34-.22-.02.331-.059.662-.059.973 0 .399.039.709.099 1.107-.61 0-1.2-.023-1.81-.045-.89-.022-1.81-.066-2.7-.066-1.26 0-2.5.066-3.76.133.04-.863.061-1.726.08-2.591.04-1.349.04-2.722.04-4.094 0-1.681.02-3.342-.02-5.002a93.798 93.798 0 00-.16-4.073c1.3.045 2.58.089 3.88.089 1.44 0 2.86-.044 4.31-.089-.02.331-.07.664-.07 1.019 0 .353.05.73.07 1.084l-4.679-.265v5.622c.689-.021 1.389-.021 2.079-.045.87-.021 1.74-.088 2.641-.155-.061.42-.131.71-.131 1.13 0 .376.05.619.09.995-.75-.066-1.49-.132-2.24-.178-.81-.044-1.6-.065-2.42-.065v4.78M1043.261 765.721c-.02 2.224-.04 4.45-.02 6.671 0 2.38.1 4.78.21 7.159-.6-.044-1.17-.089-1.769-.089-.611 0-1.251.067-1.871.132.02-.881.07-1.739.09-2.62v-2.356c-.02-1.497-.04-3.018-.04-4.493 0-2.068-.09-4.14-.17-6.21 1.33.043 2.671.109 4.001.109 1.439 0 2.899-.088 4.329-.198l.02 2.114-4.78-.219M1053.972 777.915c.819 0 1.629 0 2.449-.045.79-.043 1.59-.131 2.371-.22-.021.331-.061.663-.061.973 0 .399.04.709.11 1.108-.62 0-1.22-.023-1.84-.045-.91-.023-1.84-.066-2.74-.066-1.279 0-2.539.066-3.819.132.039-.863.059-1.725.079-2.59.05-1.349.05-2.722.05-4.094 0-1.681.02-3.342-.029-5.002a95.424 95.424 0 00-.161-4.073c1.32.045 2.62.091 3.94.091 1.46 0 2.91-.046 4.371-.091-.021.333-.061.664-.061 1.019 0 .353.04.73.061 1.084l-4.741-.265v5.622c.7-.021 1.401-.021 2.1-.045.89-.021 1.78-.088 2.68-.155-.06.42-.12.71-.12 1.13 0 .376.04.619.081.995-.761-.066-1.511-.132-2.271-.178a45.52 45.52 0 00-2.449-.065v4.78M1065.082 775.126c.039 1.572.099 3.144.169 4.693-.96-.133-1.33-.177-1.83-.177-.58 0-1.16.066-1.74.132.04-1.15.111-2.301.15-3.473.02-1.107.02-2.236.02-3.365v-3.609c0-.73 0-1.437-.02-2.168a67.681 67.681 0 00-.15-3.211c.62.067 1.25.111 1.85.111.581 0 1.161-.044 1.74-.111-.04.796-.11 1.595-.13 2.391-.08 1.97-.059 3.94-.059 5.91v2.877"/><path d="M1072.441 778.215c1 .045 1.85.045 2.46-.947.43-.662.45-1.453.45-1.696 0-1.452-.45-2.289-.77-2.686-.76-.859-1.859-.772-2.2-.772-.019.991-.019 1.961-.019 2.931 0 1.056.039 2.112.079 3.17zm-3.51 1.453l.121-2.819c.029-1.057.049-2.136.049-3.193 0-1.388-.02-2.776-.049-4.14 0-.925 0-1.829-.021-2.731-.03-.925-.1-1.85-.16-2.774.55.021 1.1.067 1.65.067.9 0 1.59-.134 1.961-.179-.041 1.236-.101 2.446-.12 3.678-.02 1.014 0 2.026 0 3.062 1.589.021 3.199.021 4.599.924.18.133.67.443 1.08.992.781 1.08.84 2.378.84 2.841 0 1.255-.43 2.114-.68 2.488-.5.859-1.3 1.542-3.24 1.719-.399.043-.81.043-1.24.065h-4.79" fill-rule="evenodd"/><path d="M1091.291 779.774c-1.83-.066-3.659-.132-5.49-.132-1.969 0-3.96.044-5.93.11.02-.177.1-.663.1-1.173 0-.399-.08-1.041-.08-1.085l2.54.2c1.401.088 2.801.133 4.2.176-1.15-2.078-2.33-4.183-3.47-6.285-.73-1.349-1.439-2.721-2.2-4.051a108.59 108.59 0 00-1.779-3.01l-.021-.642c2.11.066 4.2.156 6.32.156 1.951 0 3.9-.045 5.871-.09-.091.932-.091 1.219-.051 2.148-1.13-.088-2.29-.199-3.45-.265-1.359-.065-2.63-.065-3.99-.065.24.485.49.972.75 1.459.61 1.107 1.24 2.192 1.831 3.276.929 1.682 1.849 3.387 2.78 5.069.709 1.216 1.329 2.434 2.039 3.629l.03.575M1097.191 775.11c.041 1.564.1 3.128.17 4.669-.96-.132-1.34-.176-1.84-.176-.58 0-1.16.066-1.75.132.051-1.145.11-2.291.15-3.456.021-1.102.021-2.225.021-3.348v-3.59c0-.727 0-1.433-.021-2.159a68.267 68.267 0 00-.15-3.193c.63.065 1.25.11 1.86.11.58 0 1.171-.045 1.751-.11-.041.792-.111 1.584-.131 2.378-.08 1.959-.06 3.92-.06 5.882v2.861M1112.361 776.072c.15 1.459.27 1.814.47 2.633-.41.265-.53.331-.769.421-.351.154-.7.243-1.071.353-1.49.421-2.2.443-2.96.443-3.079 0-4.98-1.128-6-2.103-2.329-2.167-2.429-5.223-2.429-6.308 0-3.652 1.469-5.378 2.599-6.307 1.69-1.44 3.45-1.705 5.51-1.705 1.96 0 3.37.376 5.221.886-.041.972-.101 1.969-.101 2.943 0 .886.06 1.771.13 2.634l.141 1.219c-.981-.156-1.391-.201-1.901-.201-.55 0-1.099.067-1.66.111.07-.907.11-1.815.11-2.722 0-1.018-.04-2.015-.09-3.012-.32-.11-.83-.287-1.65-.287-.96 0-1.61.2-1.98.354a3.674 3.674 0 00-1.489 1.196c-1.251 1.704-1.271 4.516-1.271 4.959 0 3.431 1.47 5.267 2.58 6.019.98.641 1.981.708 2.371.708 1.889 0 2.789-1.017 3.259-1.594.17-.221.33-.419.47-.64h.51M1119.721 777.819c.81 0 1.6 0 2.411-.044a40.19 40.19 0 002.339-.222c-.019.333-.06.664-.06.975 0 .398.041.708.1 1.106-.61 0-1.199-.022-1.81-.044-.889-.022-1.81-.066-2.7-.066-1.259 0-2.5.066-3.76.133.04-.863.061-1.727.081-2.591.039-1.348.039-2.72.039-4.093 0-1.684.02-3.342-.02-5.002a92.222 92.222 0 00-.16-4.074c1.301.043 2.58.088 3.88.088 1.44 0 2.86-.045 4.31-.088-.019.332-.07.664-.07 1.02 0 .353.051.729.07 1.083l-4.68-.266v5.623c.69-.023 1.39-.023 2.07-.045.88-.023 1.75-.088 2.65-.155-.059.422-.13.709-.13 1.129 0 .376.051.619.09.997-.76-.066-1.489-.133-2.239-.178a43.142 43.142 0 00-2.411-.066v4.78"/><path d="M1130.831 778.12c1.09.043 2.03.065 2.71-.971.22-.351.47-.902.47-1.87 0-2.049-1.17-2.798-1.95-2.995-.35-.09-.55-.111-1.21-.09l-.02 5.926zm3.491-6.651c1.169.529 2.319 1.08 2.869 2.422a4.27 4.27 0 01.351 1.675c0 1.122-.391 1.893-.621 2.245-1.02 1.674-2.91 1.762-4.55 1.829l-2.259-.132c-1.5 0-1.891.044-2.691.132.04-.881.08-1.764.1-2.644.07-1.496.07-2.972.07-4.447 0-1.454.04-2.908.04-4.339 0-.53 0-1.035-.02-1.544-.02-.924-.09-1.85-.15-2.775.6.043 1.21.112 1.831.112.569 0 1.169-.045 1.739-.09-.06 1.036-.12 2.051-.14 3.084-.02.77-.02 1.541-.02 2.312a38 38 0 01-.1 2.16l4.04-7.621c.72.086 1.44.176 2.15.176.62 0 .871-.045 1.93-.198-.74 1.256-1.47 2.489-2.21 3.722-.47.75-.93 1.475-1.38 2.204l-.979 1.717" fill-rule="evenodd"/></g></g></g></g></svg>