<svg xmlns="http://www.w3.org/2000/svg" width="1024" height="220" viewBox="-0.748 -0.748 122.93 26.426"><path d="M95.336 0l-10.49 24.93h15.608L110.944 0H95.336" fill="#fecc13"/><path d="M110.944 0l-7.798 18.532 2.681 6.398h15.607L110.944 0M52.03 0h6.455l-.841 19.145h.07L64.975 0h8.351l-.561 19.145h.07L79.851 0h6.597L75.956 24.93h-8.419l.492-19.573h-.072L60.59 24.93h-8.42L52.03 0zM28.295 0h6.56l-1.93 9.536h7.754L42.609 0h6.56l-5.086 24.93H37.52l2.177-10.68h-7.754l-2.176 10.68h-6.56L28.295 0zM5.122 0h10.945c2.527 0 6.843 1 6.843 5.714 0 3.357-2.563 5.858-6.421 6.322v.073c2.807.427 4.736 2.07 4.736 4.821 0 5.285-4.632 7.93-10.245 8H0L5.122 0zm2.315 20.215h1.754c3.299 0 5.509-.929 5.509-3.356 0-2.179-1.544-2.502-4.49-2.502H8.631l-1.193 5.858zM9.58 9.858h2.455c2.736 0 4.35-1.108 4.35-2.822 0-2-1.614-2.322-4.069-2.322H10.63L9.579 9.857" fill="#003979"/></svg>