<svg xmlns="http://www.w3.org/2000/svg" xmlns:xlink="http://www.w3.org/1999/xlink" version="1.0" width="602.362" height="109.949"><defs><radialGradient cx="0" cy="0" r="1" fx="0" fy="0" id="a" gradientUnits="userSpaceOnUse" gradientTransform="matrix(24.97987 0 0 -24.97987 568.242 786.906)" spreadMethod="pad"><stop offset="0" stop-color="#fedf33"/><stop offset=".44" stop-color="#fbb809"/><stop offset=".9" stop-color="#ee960d"/><stop offset="1" stop-color="#d87301"/></radialGradient><radialGradient cx="0" cy="0" r="1" fx="0" fy="0" id="h" xlink:href="#a" gradientUnits="userSpaceOnUse" gradientTransform="matrix(24.97987 0 0 -24.97987 568.242 786.906)" spreadMethod="pad"/><radialGradient cx="0" cy="0" r="1" fx="0" fy="0" id="b" gradientUnits="userSpaceOnUse" gradientTransform="matrix(24.91013 0 0 -24.91013 543.6 793.651)" spreadMethod="pad"><stop offset="0" stop-color="#fedf33"/><stop offset=".44" stop-color="#fbb809"/><stop offset=".9" stop-color="#ee960d"/><stop offset="1" stop-color="#e17a10"/></radialGradient><radialGradient cx="0" cy="0" r="1" fx="0" fy="0" id="g" xlink:href="#b" gradientUnits="userSpaceOnUse" gradientTransform="matrix(24.91013 0 0 -24.91013 543.6 793.651)" spreadMethod="pad"/><radialGradient cx="0" cy="0" r="1" fx="0" fy="0" id="c" gradientUnits="userSpaceOnUse" gradientTransform="matrix(24.92003 0 0 -24.92003 561.756 811.727)" spreadMethod="pad"><stop offset="0" stop-color="#fedf33"/><stop offset=".44" stop-color="#fbb809"/><stop offset=".9" stop-color="#ee960d"/><stop offset="1" stop-color="#e17a10"/></radialGradient><radialGradient cx="0" cy="0" r="1" fx="0" fy="0" id="f" xlink:href="#c" gradientUnits="userSpaceOnUse" gradientTransform="matrix(24.92003 0 0 -24.92003 561.756 811.727)" spreadMethod="pad"/><radialGradient cx="0" cy="0" r="1" fx="0" fy="0" id="d" gradientUnits="userSpaceOnUse" gradientTransform="matrix(24.90173 0 0 -24.90172 568.259 786.987)" spreadMethod="pad"><stop offset="0" stop-color="#fedf33"/><stop offset=".44" stop-color="#fbb809"/><stop offset=".9" stop-color="#ee960d"/><stop offset="1" stop-color="#e17a10"/></radialGradient><radialGradient cx="0" cy="0" r="1" fx="0" fy="0" id="e" xlink:href="#d" gradientUnits="userSpaceOnUse" gradientTransform="matrix(24.90173 0 0 -24.90172 568.259 786.987)" spreadMethod="pad"/></defs><path d="M562.198 811.726c-.585 0-2.324 0-4.345-2.454l.079-.094c.519.607 1.17 1.228 1.869 1.68.646.416 1.395.694 2.015.762.452.05 1.947.031 3.649.031a.021.021 0 00.018-.009l-.044.074c-.003.007-.009.01-.016.01h-3.225z" fill="url(#e)" transform="matrix(2.66676 0 0 -2.66676 -946.117 2182.389)"/><path d="M550.345 811.726c-.006 0-.013-.002-.017-.009l-6.33-10.964-1.985-3.438-.23-.399-.03-.051c-.002-.004-.002-.011.002-.019l6.03-10.444v.043c-.131.24-.225.425-.275.541-.252.571-.395 1.361-.358 2.129.102 2.022 1.177 4.017 1.718 4.953l3.719 6.443 3.72 6.444c.54.935 1.731 2.864 3.432 3.963.645.417 1.403.687 2.021.755.453.051 1.957.053 3.661.053h-15.078z" fill="url(#f)" transform="matrix(2.66676 0 0 -2.66676 -946.117 2182.389)"/><path d="M541.805 796.763l.282-.49-.282.49zm30.332-3.06c-.369-.502-.981-1.023-1.665-1.373-1.803-.923-4.067-.99-5.147-.99h-14.881c-1.08 0-3.347.067-5.147.99-.685.35-1.297.871-1.666 1.373-.234.319-.834 1.341-1.544 2.57l1.513-2.622 5.694-9.863a.02.02 0 01.016-.009h17.149c.005 0 .012.005.015.01l7.472 12.941c-.824-1.427-1.546-2.67-1.809-3.027" fill="url(#g)" transform="matrix(2.66676 0 0 -2.66676 -946.117 2182.389)"/><path d="M561.762 811.673c-.618-.068-1.376-.338-2.021-.755-.712-.46-1.334-1.065-1.857-1.682.727-.857 1.261-1.736 1.575-2.281l3.721-6.444 3.72-6.443c.539-.936 1.615-2.931 1.715-4.953.038-.768-.107-1.558-.356-2.129-.175-.399-.87-1.612-1.677-3.01l7.433 12.873.001.004v.008a.008.008 0 01-.002.005l-8.575 14.85c-.003.007-.009.01-.016.01-1.704 0-3.208-.002-3.661-.053" fill="url(#h)" transform="matrix(2.66676 0 0 -2.66676 -946.117 2182.389)"/><path d="M38.05 38.007c-11.312 0-20.333 9.312-20.333 21 0 12.217 8.866 20.668 19.8 20.668 6.26 0 11.107-2.243 14.8-6.467l-5.466-5.6c-2.262 2.414-5.107 3.734-8.8 3.734-6.409 0-10.734-5.369-10.734-12.534 0-6.936 4.419-12.467 10.6-12.467 3.246 0 6.003 1.213 8.267 3.4l5.667-5.867c-3.32-3.619-8.219-5.867-13.8-5.867zm38.335 0c-11.99 0-21 9.387-21 21 0 11.767 8.517 20.668 20.734 20.668 11.99 0 21-9.384 21-21 0-11.764-8.52-20.668-20.734-20.668zm30.468.667l-3.934 40.268h8.334l1.867-21.734c.376-4.224.4-8.6.4-8.6h.2s.928 4.402 2.133 8.4l6.8 21.934h7.934l6.8-22.134c1.206-3.846 2.134-8.2 2.134-8.2h.133s.09 4.357.467 8.733l1.8 21.6h8.867l-3.934-40.267h-11.667l-6.133 19.934c-.979 3.248-2 7.4-2 7.4s-1.075-4.147-2.134-7.467l-6.2-19.867h-11.867zm56.135 0l-3.867 40.268h8.334l1.8-21.734c.376-4.224.467-8.6.467-8.6h.133s.995 4.402 2.2 8.4l6.8 21.934h7.934l6.734-22.134c1.208-3.846 2.133-8.2 2.133-8.2h.133s.091 4.357.467 8.733l1.8 21.6h8.934l-3.934-40.267H191.39l-6.133 19.934c-.982 3.248-2 7.4-2 7.4s-1.078-4.147-2.134-7.467l-6.2-19.867h-11.934zm53.602 0v40.268h26.201v-7.734h-17.4v-8.8h14.733v-7.534H225.39v-8.533h17.134v-7.667H216.59zm36.535 0v40.268h8.8V64.275h2.733l8.6 14.667h10.468l-9.934-16.2c5.203-1.96 8.134-5.998 8.134-11.201 0-8.144-4.592-12.867-16.734-12.867h-12.067zm36.134 0v7.667h16.268l-16.668 25.934v6.667h28.068v-7.734H299.86l16.667-25.934v-6.6h-27.268zm36.735 0v40.268h15.4c7.166 0 15.134-3.232 15.134-11.6 0-5.203-3.322-8.726-8.6-9.4v-.068c4.147-1.285 6.734-4.418 6.734-8.867 0-8.75-7.715-10.333-14.734-10.333h-13.934zm47.802 0l-14.334 40.268h8.8l2.8-8.2h15.667l2.8 8.2h9.468l-14.334-40.268h-10.867zm30.667 0v40.268h8.134V59.808c0-3.622-.267-7.334-.267-7.334s1.891 3.235 4 6.4l13.668 20.068h7.8V38.674h-8.2V56.94c0 3.622.266 7.267.266 7.267s-1.885-3.232-4-6.4l-13.067-19.134h-8.334zm43.002 0v40.268h8.734V60.075l12.867 18.867h10.8l-14.8-21.6 13.4-18.668h-10.134L456.2 56.74V38.674h-8.734zM76.252 46.207c6.936 0 11.4 5.505 11.4 12.668 0 6.786-4.315 12.6-11.4 12.6-6.939 0-11.4-5.502-11.4-12.667 0-6.787 4.312-12.6 11.4-12.6zm185.673 0h3.6c4.675 0 7.4 1.414 7.4 5.334 0 3.77-2.498 5.4-7.4 5.4h-3.6V46.207zm72.803 0h5.066c2.79 0 5.6.88 5.6 4.2 0 3.24-2.405 4.534-5.2 4.534h-5.466v-8.734zm44.201.6s.75 2.726 1.734 5.667l3.533 10.667h-10.534l3.534-10.6c.981-3.016 1.733-5.734 1.733-5.734zm-44.201 15.534h6.466c3.918 0 6.467 1.232 6.467 4.4 0 3.094-2.018 4.667-6.467 4.667h-6.466v-9.067z"/></svg>