<svg xmlns="http://www.w3.org/2000/svg" height="391" width="849"><path fill="#008746" d="M849 .3v390.4H35.1c-22.06 0-41.6-8.836-31.68-39.39l97.88-301.4C110.5 23.28 133.7.32 160.7.32z"/><path fill="#fff" d="M672.4 179.8l40.44 74.85h-34.13L652 204.51l-14.37 17.6v32.53h-34.02v-118h34.02v48.96l36.77-48.96h33.41zm-216.8 74.85h-82.27v-118h78.21v20.02h-45.26v25.13h43.78v19.6h-43.8v29.95h49.34zm97.22-.022h-49.31l-33.08-118h35.27l22.78 95.82 25.28-95.82h32.15zm-312.3.044v-118.2h52.6c12.72 0 32.73.13 44.23 12.72 11.28 12.35 12.21 33.99 12.21 46.05 0 50.55-26.27 59.45-60.59 59.45zm46.04-21.32c3.943-.07 8.005-.26 11.98-1.218 13.06-3.147 16.32-11.8 17.65-21.04.87-6.049 1.109-10.41 1.109-16.32 0-6.047-.167-12.11-1.264-18.16-.788-4.996-2.507-10.17-5.83-13.78-6.127-6.668-15.76-6.514-22.54-6.514h-12.6l-.002 76.98c3.83.063 7.662.13 11.49.063z"/></svg>