<svg xmlns="http://www.w3.org/2000/svg" version="1.0" width="1024" height="438" viewBox="-2.021 -2.021 167.031 71.404"><path d="M45.737 38.825V12.5h4.188v22.583h9.866v3.742H45.738M39.159 13.116l.097.037-.595 3.908c-1.934-.832-3.165-1.262-5.296-1.262-2.259 0-4.718.645-4.718 3.2 0 1.986 2.35 2.882 3.823 3.619 3.76 1.875 8.17 3.468 8.17 8.708 0 5.845-4.826 7.944-10.126 7.944-1.956 0-4.009-.498-5.809-1.244l.426-3.964c1.732.836 3.888 1.464 5.828 1.464 2.431 0 5.272-1.046 5.272-3.977 0-2.253-2.139-3.214-3.825-4.069-3.655-1.854-8.168-2.975-8.168-8.148 0-4.88 4.165-7.277 8.978-7.277 1.956 0 4.106.388 5.943 1.061M141.963 38.825v-28.25h3.966v16.262l7.307-7.378h5.383l-9.038 8.619 10.104 10.747h-5.67l-8.086-9.294v9.294h-3.966M130.227 19.015c4.895 0 7.06 3.099 7.06 8.35v11.46h-3.965V27.667c0-4.188-1.746-5.356-3.76-5.356-3.517 0-4.985 2.971-4.985 7.534v8.98h-3.965V19.459h3.856s0 .75-.012 1.427c-.005.383-.015.789-.03 1.111 1.185-1.773 3.258-2.982 5.801-2.982" fill="#a70236"/><path d="M82.351 27.027v8.328h4.815c3.291 0 4.948-1.645 4.948-4.055 0-2.764-1.823-4.273-5.064-4.273h-4.699zm14.173 4.67c0 5.186-3.925 7.128-9.204 7.128h-9.156V12.5h8.682c4.964 0 8.757 1.809 8.757 6.758 0 3.253-1.847 5.163-4.254 5.998 2.918.698 5.175 3.009 5.175 6.44zM82.35 15.97v7.588l3.95.002c3.249.003 5.114-1.28 5.114-3.931 0-2.591-1.869-3.662-4.276-3.662l-4.788.003M111.896 31.253v-1.427c-.66-.012-1.319-.071-1.977-.071-1.999 0-6.31.341-6.31 3.385 0 1.809 1.751 2.83 3.273 2.83 3.308 0 5.014-2.036 5.014-4.717zm-5.31 8.017c-4.147 0-7.166-1.835-7.166-6.13 0-4.981 5.438-6.461 9.016-6.461 1.288 0 2.216 0 3.458.061-.06-2.977-1.189-4.426-4.419-4.426-2.169 0-4.05.796-5.691 2.178l-.224-3.59c2.024-1.206 4.095-1.887 6.469-1.887 5.556 0 7.832 2.79 7.832 8.054v7.811c0 1.316.009 2.636.183 3.945h-3.778v-2.076c-.977 1.142-2.805 2.521-5.68 2.521" fill="#a70236" fill-rule="evenodd"/><path d="M65.858 0h1.583v51.325h-1.624L65.858 0" fill="#231f20"/><path d="M0 38.825V12.5h6.981c7.768 0 13.888 4.819 13.888 12.94 0 8.812-5.255 13.385-13.888 13.385H0zm4.188-22.583v18.84h2.757c6.241 0 9.514-2.972 9.514-9.493 0-5.896-3.869-9.346-9.07-9.346H4.187" fill="#a70236" fill-rule="evenodd"/><path d="M78.164 67.246h.968v-3.082h2.512v-.854h-2.512v-1.976h2.628v-.854h-3.596v6.766" fill="#231f20"/><path d="M84.037 60.17H83.01v1.027h1.027V60.17zm-.97 7.076h.912v-4.943h-.912v4.943" fill="#231f20" fill-rule="evenodd"/><path d="M85.741 67.246h.912V64.96c0-1.203.465-2.037 1.502-2.037.795.05 1.046.612 1.046 1.766v2.558h.912V64.31c0-1.328-.572-2.123-1.852-2.123-.688 0-1.347.339-1.618.901h-.02v-.785h-.882v4.944" fill="#231f20"/><path d="M94.695 65.328c0 .736-.475 1.298-1.376 1.298-.416 0-.922-.281-.922-.803 0-.873 1.222-.95 1.717-.95.194 0 .387.018.581.018v.436zm-2.656-1.9c.368-.31.921-.504 1.435-.504.911 0 1.221.436 1.221 1.289-.359-.02-.61-.02-.97-.02-.94 0-2.296.388-2.296 1.63 0 1.075.746 1.54 1.812 1.54.834 0 1.319-.456 1.531-.757h.02v.64h.853c-.02-.145-.039-.406-.039-.968v-2.046c0-1.347-.572-2.046-1.987-2.046-.63 0-1.173.195-1.628.467l.048.775" fill="#231f20" fill-rule="evenodd"/><path d="M97.293 67.246h.91V64.96c0-1.203.466-2.037 1.503-2.037.795.05 1.046.612 1.046 1.766v2.558h.912V64.31c0-1.328-.572-2.123-1.852-2.123-.687 0-1.347.339-1.618.901h-.019v-.785h-.882v4.944M103.015 67.246h4.013v-.737h-2.957l2.85-3.412v-.794h-3.771v.736h2.715l-2.85 3.412v.795" fill="#231f20"/><path d="M108.894 64.755c-.019-.902.368-1.832 1.357-1.832s1.464.94 1.464 1.86c0 .825-.428 1.842-1.455 1.842-.979 0-1.385-1.095-1.366-1.87zm2.86 2.491h.872v-7.271h-.911v3.006h-.02c-.281-.456-.775-.795-1.637-.795-1.436 0-2.133 1.173-2.133 2.502 0 1.346.63 2.674 2.123 2.674.88 0 1.445-.446 1.686-.814h.02v.698M115.358 60.17h-1.028v1.027h1.028V60.17zm-.97 7.076h.912v-4.943h-.912v4.943M117.584 64.3c.067-.64.436-1.376 1.327-1.376.785 0 1.231.62 1.231 1.376h-2.558zm3.15 1.832c-.224.184-.921.494-1.521.494a1.618 1.618 0 01-1.63-1.647h3.53c0-1.59-.534-2.791-2.183-2.791-1.395 0-2.316 1.036-2.316 2.5 0 1.608.805 2.674 2.558 2.674.816 0 1.213-.193 1.562-.318v-.912" fill="#231f20" fill-rule="evenodd"/><path d="M122.427 67.246h.912V64.96c0-1.203.465-2.037 1.502-2.037.795.05 1.048.612 1.048 1.766v2.558h.91V64.31c0-1.328-.572-2.123-1.852-2.123-.687 0-1.347.339-1.618.901h-.019v-.785h-.883v4.944M128.159 67.091c.416.223.891.272 1.357.272.883 0 1.725-.486 1.725-1.542 0-1.58-2.141-1.288-2.141-2.297 0-.408.406-.602.871-.602.214 0 .756.127.96.253l.078-.795c-.359-.106-.708-.194-1.134-.194-.979 0-1.745.494-1.745 1.522 0 1.387 2.141 1.31 2.141 2.21 0 .533-.512.708-.93.708a2.45 2.45 0 01-1.133-.349l-.05.814M136.355 67.246h.91v-7.27h-.91v7.27z" fill="#231f20"/><path d="M139.551 64.3c.068-.64.437-1.376 1.328-1.376.785 0 1.231.62 1.231 1.376h-2.559zm3.15 1.832c-.222.184-.921.494-1.521.494a1.618 1.618 0 01-1.629-1.647h3.529c0-1.59-.534-2.791-2.181-2.791-1.397 0-2.318 1.036-2.318 2.5 0 1.608.805 2.674 2.559 2.674.815 0 1.213-.193 1.561-.318v-.912" fill="#231f20" fill-rule="evenodd"/><path d="M146.841 67.091c.416.223.891.272 1.358.272.881 0 1.725-.486 1.725-1.542 0-1.58-2.143-1.288-2.143-2.297 0-.408.408-.602.873-.602.214 0 .756.127.96.253l.077-.795c-.358-.106-.707-.194-1.133-.194-.98 0-1.745.494-1.745 1.522 0 1.387 2.14 1.31 2.14 2.21 0 .533-.512.708-.93.708-.262 0-.774-.117-1.133-.349l-.049.814" fill="#231f20"/><path d="M155.501 64.3c.068-.64.436-1.376 1.329-1.376.785 0 1.23.62 1.23 1.376h-2.559zm3.151 1.832c-.223.184-.92.494-1.522.494a1.618 1.618 0 01-1.629-1.647h3.529c0-1.59-.532-2.791-2.181-2.791-1.397 0-2.318 1.036-2.318 2.5 0 1.608.805 2.674 2.56 2.674.814 0 1.212-.193 1.561-.318v-.912M145.365 60.17h-1.028v1.027h1.028V60.17zm-.97 7.076h.912v-4.943h-.912v4.943M78.164 56.269h.968v-2.704h.95c1.222 0 2.396-.534 2.396-2.036 0-1.542-1.154-2.027-2.54-2.027h-1.774v6.767zm.968-5.913h.824c.602 0 1.493.31 1.493 1.164 0 .891-.755 1.191-1.356 1.191h-.96v-2.355M86.301 54.35c0 .736-.475 1.299-1.376 1.299-.418 0-.921-.282-.921-.804 0-.873 1.221-.95 1.716-.95.194 0 .388.019.581.019v.436zm-2.656-1.9c.369-.31.921-.504 1.435-.504.911 0 1.221.437 1.221 1.289-.359-.019-.611-.019-.969-.019-.94 0-2.297.388-2.297 1.629 0 1.075.746 1.541 1.813 1.541.833 0 1.317-.456 1.53-.756h.02v.639h.853c-.02-.144-.038-.407-.038-.969v-2.045c0-1.348-.573-2.046-1.988-2.046-.629 0-1.172.195-1.627.466l.047.775" fill="#231f20" fill-rule="evenodd"/><path d="M88.849 56.269v-4.944h.852v.766c.263-.514.787-.882 1.31-.882.213 0 .343.017.482.045v.797a1.463 1.463 0 00-.385-.047c-.814 0-1.348.776-1.348 2.016v2.249h-.911M94.865 52.061h-1.086v2.705c0 .572.349.883.765.883.281 0 .485-.088.62-.175v.775c-.203.058-.484.136-.775.136-.94 0-1.521-.446-1.521-1.435v-2.889h-.857v-.736h.857v-1.144l.91-.291v1.435h1.087v.736M96.325 56.269h.911V53.98c0-1.201.465-2.035 1.503-2.035.795.049 1.047.61 1.047 1.764v2.559h.91v-2.936c0-1.33-.571-2.124-1.851-2.124-.688 0-1.347.34-1.619.902h-.019v-.786h-.882v4.944" fill="#231f20"/><path d="M102.983 53.322c.067-.64.436-1.376 1.328-1.376.784 0 1.23.62 1.23 1.377h-2.558zm3.15 1.832c-.223.185-.922.495-1.522.495A1.618 1.618 0 01102.982 54h3.53c0-1.59-.534-2.792-2.182-2.792-1.396 0-2.316 1.037-2.316 2.501 0 1.609.803 2.676 2.559 2.676.813 0 1.21-.195 1.56-.321v-.911M115.169 53.778c.02.775-.388 1.87-1.367 1.87-1.027 0-1.453-1.018-1.453-1.842 0-.92.475-1.861 1.463-1.861.99 0 1.377.941 1.357 1.833zm-3.731 2.49h.872v-.697h.019c.242.369.805.814 1.687.814 1.493 0 2.123-1.319 2.123-2.675 0-1.329-.698-2.501-2.133-2.501-.862 0-1.357.34-1.638.795h-.02v-3.005h-.91v7.27M120.418 54.35c0 .736-.476 1.299-1.377 1.299-.417 0-.921-.282-.921-.804 0-.873 1.221-.95 1.716-.95.194 0 .388.019.582.019v.436zm-2.657-1.9c.369-.31.922-.504 1.435-.504.912 0 1.222.437 1.222 1.289-.36-.019-.612-.019-.97-.019-.94 0-2.297.388-2.297 1.629 0 1.075.746 1.541 1.813 1.541.834 0 1.317-.456 1.531-.756h.019v.639h.854c-.02-.144-.04-.407-.04-.969v-2.045c0-1.348-.572-2.046-1.987-2.046-.628 0-1.172.195-1.628.466l.048.775" fill="#231f20" fill-rule="evenodd"/><path d="M123.015 56.269h.911V53.98c0-1.201.466-2.035 1.503-2.035.795.049 1.047.61 1.047 1.764v2.559h.912v-2.936c0-1.33-.573-2.124-1.852-2.124-.689 0-1.349.34-1.62.902h-.019v-.786h-.882v4.944M129.031 56.269h.911V53.73l2.21 2.539h1.31l-2.59-2.753 2.298-2.191h-1.24l-1.988 2.008v-4.334h-.91v7.27" fill="#231f20"/><path d="M137.389 53.778c-.019-.902.368-1.833 1.357-1.833s1.464.941 1.464 1.861c0 .824-.428 1.843-1.455 1.843-.979 0-1.385-1.096-1.366-1.871zm2.86 2.49h.871v-7.27h-.91v3.006h-.02c-.28-.455-.775-.795-1.637-.795-1.435 0-2.134 1.172-2.134 2.501 0 1.347.631 2.675 2.123 2.675.883 0 1.446-.445 1.687-.814h.02v.698M143.406 53.322c.068-.64.436-1.376 1.328-1.376.786 0 1.231.62 1.231 1.377h-2.559zm3.15 1.832c-.222.185-.92.495-1.521.495A1.618 1.618 0 01143.406 54h3.529c0-1.59-.532-2.792-2.181-2.792-1.397 0-2.318 1.037-2.318 2.501 0 1.609.805 2.676 2.56 2.676.814 0 1.212-.195 1.56-.321v-.911" fill="#231f20" fill-rule="evenodd"/><path d="M107.826 56.269v-4.944h.853v.766c.261-.514.786-.882 1.308-.882.214 0 .343.017.483.045v.797a1.463 1.463 0 00-.385-.047c-.814 0-1.347.776-1.347 2.016v2.249h-.912M148.25 56.269v-4.944h.852v.766c.262-.514.785-.882 1.31-.882.213 0 .342.017.482.045v.797a1.466 1.466 0 00-.387-.047c-.813 0-1.346.776-1.346 2.016v2.249h-.911M134.94 63.039h-1.086v2.704c0 .573.348.882.765.882.281 0 .485-.086.621-.174v.777c-.205.057-.485.135-.776.135-.94 0-1.522-.447-1.522-1.436V63.04h-.856v-.736h.856v-1.144l.912-.291v1.434h1.086v.737M153.528 63.039h-1.087v2.704c0 .573.349.882.765.882.282 0 .485-.086.621-.174v.777c-.204.057-.484.135-.776.135-.94 0-1.521-.447-1.521-1.436V63.04h-.856v-.736h.856v-1.144l.911-.291v1.434h1.087v.737M160.345 67.246v-4.943h.852v.766c.262-.514.787-.883 1.31-.883.213 0 .342.018.482.044v.798a1.512 1.512 0 00-.385-.047c-.814 0-1.348.775-1.348 2.017v2.248h-.911" fill="#231f20"/></svg>