<svg xmlns="http://www.w3.org/2000/svg" version="1.0" width="749" height="245" viewBox="-0.374 -0.184 749 245"><g fill="#056878"><path d="M748.345 65.921L733.656 95.9c-16.77-1.212-27.57-8.346-27.57-8.346l-11.072 21.332v84.335l-34.635 7.43.004-110.901-16.037-7.259 13.977-28.514 36.691 16.5v8.881c0 2.983-.158 5.946-.158 5.946.105.059 1.475-3.256 2.672-5.708l12.492-25.619c-.001 0 16.921 10.22 38.325 11.944zM282.489 84.438h-20.26l12.492-27.469h7.768V46.456l34.734-18.947V56.97h22.385l-12.439 27.469h-9.945v76.207c7.406 5.885 21.465 10.003 21.465 9.853l-14.818 30.144s-26.215-7.666-41.381-21.176V84.438h-.001zM436.828 227.229l-34.629 16.732V92.323l-11.906-5.626-8.617 16.359v89.919l-34.633 7.675.002-161.453c0-9.94-2.584-21.905-2.584-21.905L377.273 0s4.406 11.061 4.402 28.699l-.004 46.247c0 3.619-.176 5.885-.176 5.885.148.045 1.461-3.183 2.68-5.676l10.328-21.179 42.324 19.083v154.17h.001zM85.653 85.366l32.229-24.32c19.313 4.308 40.648 29.65 40.648 59.681 0 29.871-5.714 44.341-5.714 44.341l-46.18 34.473s-9.591 1.11-21.693 1.11C19.906 200.65 0 153.241 0 116.642c0-23.377 6.797-34.84 6.797-34.84l33.798-24.539-3.202-11.451L90.085 6.708c28.679 12.773 65.939 18.002 65.939 18.002l-36.188 26.935S95.393 47.53 74.779 37.402c-1.758-.874-3.504-1.896-3.504-1.896-.101.077.546 2.004 1.104 3.939l13.274 45.921zM43.846 68.64s-.652 2.086-1.85 5.177c-1.992 5.534-4.826 15.565-4.826 27.872 0 51.021 29.602 73.896 66.884 73.896 8.747 0 12.398-1.61 12.398-1.61s5.206-15.434 5.206-35.897c0-30.522-12.741-44.359-21.105-47.416L89.427 98.59l11.126 40.221-31.034 22.845L45.15 73.634c-.712-2.606-1.073-4.967-1.073-4.967l-.231-.027zM637.324 170.766l-14.646 29.885s-38.693-8.128-63.434-27.675V72.877l62.525-18.9 28.059 70.271-55.953 16.786v13.874c17.021 11.105 43.449 15.858 43.449 15.858zm-24.785-50.093L597.9 84.192c-2.281-5.66-4.098-11.018-4.098-11.018-.17.049.072 5.768.072 12.152v40.942l18.665-5.595zM494.085 199.404s-23.426-6.301-39.504-18.574V82.202l37.982-28.226 48.916 22.097V193.09l-33.992 7.561v-22.505c0-1.877.146-5.992.146-5.992s-1.684 3.663-2.611 5.52l-10.937 21.73zm13.446-30.256V94.992l-18.277-8.271v74.716c7.937 6.167 18.277 7.711 18.277 7.711zM258.89 168.654l-42.992 31.996s-26.627-6.578-43.904-19.847V82.202l37.982-28.226 48.914 22.097v92.581zm-33.989 1.695V94.992l-18.277-8.271v75.914c0 .001 6.633 5.328 18.277 7.714z"/></g></svg>