<svg xmlns="http://www.w3.org/2000/svg" version="1.0" width="1024" height="255" viewBox="-2.791 -2.791 395.34 98.605"><path d="M127.102 27.43c-1.187 0-2.153.357-2.906 1.093-.752.737-1.125 1.656-1.125 2.719 0 1.065.373 1.953 1.125 2.688.753.736 1.719 1.093 2.906 1.093 1.097 0 2.014-.357 2.75-1.093.736-.735 1.125-1.623 1.125-2.688a3.74 3.74 0 00-1.125-2.719c-.736-.736-1.653-1.093-2.75-1.093zm12.125 0c-1.19 0-2.152.357-2.906 1.093-.747.737-1.125 1.656-1.125 2.719 0 1.065.378 1.953 1.125 2.688.754.736 1.716 1.093 2.906 1.093 1.097 0 2.013-.357 2.75-1.093.737-.735 1.094-1.623 1.094-2.688 0-1.062-.357-1.982-1.094-2.719-.737-.736-1.653-1.093-2.75-1.093zm33.25 2.625v7.718h-2.968v5.563h2.969V55.96c0 2.349.622 4.107 1.906 5.25 1.282 1.142 3.122 1.719 5.5 1.719.876 0 1.811-.078 2.812-.22 1.003-.142 1.841-.374 2.531-.687v-5.187c-1.22.439-2.217.656-3.03.656-.816 0-1.47-.231-1.97-.687-.5-.454-.78-1.282-.78-2.47v-11h5.312v-5.562h-5.313v-7.718h-6.969zm112.313 0v7.718h-2.969v5.563h2.969V55.96c0 2.349.656 4.107 1.937 5.25 1.283 1.142 3.117 1.719 5.5 1.719a20.2 20.2 0 002.813-.22c1-.142 1.845-.374 2.531-.687v-5.187c-1.219.439-2.25.656-3.062.656-.814 0-1.465-.231-1.969-.687-.5-.454-.75-1.282-.75-2.47v-11h5.312v-5.562h-5.312v-7.718h-7zM157.477 37.21c-3.13 0-5.576.67-7.28 2.062-1.707 1.394-2.532 3.31-2.532 5.719 0 1.378.249 2.501.75 3.375.501.876 1.107 1.609 1.875 2.188a9.738 9.738 0 002.594 1.375c.953.346 1.903.66 2.843.906 1.753.471 2.985.874 3.688 1.219.705.343 1.062.844 1.062 1.53 0 .657-.23 1.127-.687 1.376-.454.251-1.189.375-2.188.375-1.347 0-2.762-.265-4.28-.813a28.058 28.058 0 01-4.063-1.812l-2.25 5.25c.657.437 1.403.857 2.25 1.219.845.358 1.732.642 2.687.906.954.269 1.936.482 2.938.625a21.42 21.42 0 003 .219c1.406 0 2.717-.157 3.906-.47 1.191-.313 2.201-.794 3.062-1.437a6.46 6.46 0 002-2.5c.468-1.021.72-2.217.72-3.625 0-1.252-.235-2.296-.688-3.156a7.164 7.164 0 00-1.813-2.219c-.752-.611-1.639-1.111-2.625-1.5a43.003 43.003 0 00-3.094-1.093c-1.626-.504-2.795-.907-3.5-1.22-.703-.314-1.062-.81-1.062-1.437 0-1.001.87-1.5 2.625-1.5.907 0 1.952.188 3.156.563 1.205.376 2.435.936 3.688 1.656l2.968-4.844c-1.19-.907-2.637-1.622-4.375-2.156a18.224 18.224 0 00-5.375-.781zm41.032 0c-1.783 0-3.39.31-4.813.937-1.425.627-2.64 1.5-3.656 2.657a11.85 11.85 0 00-2.344 4.125c-.535 1.596-.781 3.404-.781 5.375 0 1.91.216 3.637.687 5.187.468 1.549 1.187 2.86 2.157 3.969.971 1.11 2.201 1.969 3.687 2.562 1.485.593 3.246.907 5.281.907 1.595 0 3.202-.294 4.782-.844 1.58-.546 3.089-1.53 4.562-3l-4.219-4.563c-.467.562-1.155 1.14-2.03 1.719-.876.581-1.875.875-3.032.875-1.598 0-2.795-.464-3.594-1.375-.797-.906-1.219-2.124-1.281-3.656h14.969c.06-.44.108-.84.125-1.219.015-.374 0-.781 0-1.219 0-3.974-.918-7.059-2.75-9.218-1.829-2.16-4.4-3.22-7.75-3.22zm27.906 0c-1.314 0-2.531.171-3.625.562-1.095.39-2.121 1.125-3.125 2.188v-2.188h-6.531v24.594h7V48.836c0-2.034.312-3.469.937-4.281.625-.815 1.624-1.22 3-1.22 1.286 0 2.266.392 2.938 1.157.676.766 1 2.152 1 4.125v13.75h7V47.398c0-3.474-.642-6.058-1.938-7.718-1.302-1.658-3.526-2.47-6.656-2.47zm25.5 0c-1.189 0-2.264.278-3.219.844a7.697 7.697 0 00-2.344 2.093v-2.375h-6.53v24.594h6.812V48.648c0-1 .124-1.827.375-2.5.248-.672.561-1.203.968-1.593a3.399 3.399 0 011.438-.844 5.896 5.896 0 011.656-.219c.469 0 1.047.031 1.688.125.645.095 1.281.25 1.906.469v-6.563c-.346-.095-.745-.155-1.188-.218a11.497 11.497 0 00-1.562-.094zm15.719 0c-1.815 0-3.456.31-4.938.937-1.487.627-2.767 1.515-3.812 2.657-1.05 1.145-1.845 2.512-2.407 4.125-.568 1.61-.843 3.373-.843 5.312 0 1.849.275 3.546.843 5.094.562 1.55 1.357 2.906 2.407 4.031 1.045 1.128 2.308 2 3.781 2.625 1.47.625 3.124.938 4.937.938 1.783 0 3.406-.313 4.875-.938a10.957 10.957 0 003.782-2.656c1.063-1.14 1.906-2.515 2.5-4.094.593-1.582.906-3.342.906-5.281 0-1.878-.313-3.591-.906-5.156-.594-1.565-1.422-2.904-2.469-4.032-1.05-1.125-2.311-1.999-3.781-2.625-1.473-.627-3.092-.937-4.875-.937zm-181 .562l6.718 24.594h6.094a210.027 210.027 0 001.75-7.812 202.41 202.41 0 011.781-7.782h.094l3.563 15.594h6l7-24.594h-6.844l-3.156 14.407h-.094l-3.375-14.407h-6L96.759 52.18h-.094l-3.094-14.407h-6.937zm35.468 0v15.344c0 1.501.185 2.856.563 4.094.375 1.235.982 2.314 1.844 3.187.861.879 1.982 1.545 3.343 2.032 1.362.483 3.03.718 5 .718 3.633 0 6.386-.809 8.282-2.437 1.891-1.629 2.843-4.275 2.843-7.938v-15h-7v14.125c0 2.035-.31 3.42-.906 4.157-.594.737-1.56 1.093-2.906 1.093-.719 0-1.311-.062-1.813-.218a2.44 2.44 0 01-1.218-.844c-.295-.391-.515-.909-.657-1.563-.14-.66-.187-1.496-.187-2.531V37.773h-7.188zm76.032 5c1.346 0 2.342.42 3.031 1.25.686.83 1.061 1.906 1.094 3.219h-8.344a7.255 7.255 0 01.375-1.687c.186-.532.419-1 .75-1.407a3.738 3.738 0 011.25-1c.497-.251 1.124-.375 1.844-.375zm69.5.532c1.755 0 3.012.64 3.781 1.906.766 1.267 1.156 2.841 1.156 4.75 0 .937-.092 1.86-.281 2.719a7.355 7.355 0 01-.875 2.25 4.644 4.644 0 01-1.531 1.593c-.628.392-1.372.594-2.25.594-1.844 0-3.159-.638-3.907-1.906-.753-1.268-1.125-3.028-1.125-5.25 0-.971.113-1.843.282-2.656.171-.815.436-1.53.843-2.125a4.3 4.3 0 011.563-1.375c.627-.328 1.409-.5 2.344-.5zM171.57 71.242v5.094c-.661-.069-1.25-.125-1.844-.125-3.457 0-5.656 2.329-5.656 6.156 0 3.196 1.345 5.156 4.031 5.156 1.72 0 3.042-.96 3.657-2.437h.062c-.135.637-.187 1.601-.187 2.219h1.906V71.242h-1.969zm117.438 0v15.781c1.167.31 2.257.438 3.781.438 3.52 0 5.687-2.293 5.687-6.125 0-3.348-1.453-5.157-4.03-5.156-1.652 0-3 .894-3.595 2.437l-.062-.031c.131-.549.219-1.394.219-2.031v-5.313h-2zm67.968 0v16.063h2v-5.25c0-2.422 1.29-4.25 3.094-4.25 1.454 0 1.875.893 1.875 2.437v7.063h1.969v-7.657c0-1.936-.774-3.5-3.281-3.5-1.829 0-3.178.97-3.813 2.469l-.062-.031c.151-.572.219-1.453.218-2.156v-5.188h-2zm-133.437.5c-.661 0-1.188.522-1.188 1.188 0 .658.527 1.156 1.188 1.156a1.13 1.13 0 001.156-1.156c0-.666-.495-1.188-1.156-1.188zm4.219 0a1.18 1.18 0 00-1.188 1.188c0 .658.529 1.156 1.188 1.156.663 0 1.187-.498 1.187-1.156 0-.666-.524-1.188-1.187-1.188zm105.562.25c-.729 0-1.312.572-1.312 1.281a1.31 1.31 0 001.312 1.313c.724 0 1.313-.61 1.313-1.313 0-.727-.589-1.281-1.313-1.281zm-210.5.281l-1.969.563v3.531h-2.25v1.563h2.25v6.28c0 2.356.66 3.282 2.907 3.282.703 0 1.507-.088 2.125-.219v-1.687c-.442.11-.994.219-1.5.219-1.235 0-1.563-.474-1.563-2.282V77.93h3.063v-1.563h-3.063v-4.094zm121.75 0l-2 .563v3.531h-2.219v1.563h2.22v6.28c0 2.356.693 3.282 2.937 3.282.703 0 1.51-.088 2.125-.219v-1.687c-.438.11-.994.219-1.5.219-1.233 0-1.563-.474-1.563-2.282V77.93h3.063v-1.563h-3.063v-4.094zm8.156 0l-1.968.563v3.531h-2.25v1.563h2.25v6.28c0 2.356.66 3.282 2.906 3.282.705 0 1.507-.088 2.125-.219v-1.687c-.44.11-.993.219-1.5.219-1.231 0-1.563-.474-1.563-2.282V77.93h3.063v-1.563h-3.063v-4.094zm-159.28.094c-1.343 0-2.556.05-3.657.094v14.844h2.031v-5.657c.398.042.813.031 1.188.032 3.368 0 5.75-2.063 5.75-4.97 0-2.638-1.9-4.343-5.313-4.343zm106.53.094l3.907 14.844h2.437l2.75-10c.243-.857.42-1.706.531-2.563h.032c.135.838.32 1.734.562 2.594l2.844 9.969h2.469l3.906-14.844h-2l-2.563 10.094a32.76 32.76 0 00-.5 2.406h-.03a25.823 25.823 0 00-.595-2.625l-2.843-9.875h-2.282l-2.75 9.781a26.315 26.315 0 00-.593 2.75h-.032a26.726 26.726 0 00-.593-2.844l-2.5-9.687h-2.157zM91.821 74.055c.42-.023.858 0 1.406 0 2.334 0 3.438 1.023 3.438 2.874 0 1.87-1.425 3.044-3.625 3.063-.42 0-.844.004-1.219-.063v-5.874zm12.594 2.093c-1.454 0-2.789.372-3.844.813l.188 1.687c.946-.568 2.276-.906 3.312-.906 1.804 0 2.406.825 2.406 2.344v.812c-4.138 0-6.593 1.507-6.593 3.907 0 1.74 1.226 2.718 3.031 2.718 1.805 0 3.189-1.035 3.719-2.375h.062c-.111.615-.125 1.385-.125 2.157h1.938c-.024-.948-.063-2.09-.063-3.126v-4.374c0-2.18-.882-3.657-4.031-3.657zm29.781 0c-1.87 0-3.205 1.01-3.844 2.532l-.03-.032c.132-.635.155-1.641.155-2.281h-1.906v10.938h1.969v-5.25c0-2.422 1.319-4.25 3.125-4.25 1.452 0 1.875.893 1.875 2.437v7.063h1.969v-7.657c0-1.936-.801-3.5-3.313-3.5zm141.063 0c-1.763 0-3.175.988-3.813 2.532l-.031-.032c.132-.658.156-1.641.156-2.281h-1.906v10.938h1.969v-5.22c0-2.51 1.387-4.28 3.062-4.28 1.499 0 1.781 1.102 1.781 2.468v7.032h1.97v-5.22c0-2.64 1.5-4.28 3.062-4.28 1.433 0 1.781.98 1.781 2.5v7h2v-7.563c0-2.468-1.213-3.594-3.281-3.594-2.117 0-3.289 1.469-3.75 2.5-.088-.878-.688-2.5-3-2.5zm111.187 0c-1.872 0-3.206 1.01-3.844 2.532l-.03-.032c.13-.635.187-1.641.187-2.281h-1.938v10.938h2v-5.25c0-2.422 1.289-4.25 3.094-4.25 1.452 0 1.875.893 1.875 2.437v7.063h1.969v-7.657c0-1.936-.803-3.5-3.313-3.5zm-269.531.032c-1.682.15-2.564 1.454-2.969 2.78h-.062c.177-.9.25-1.912.25-2.593h-1.907v10.938h1.97v-4.407c0-3.498 1.094-5.182 3.405-4.781l.094-1.938a3.95 3.95 0 00-.781 0zm28.219 0c-3.105 0-4.875 2.44-4.875 5.718 0 3.855 1.817 5.625 5.187 5.625 1.365 0 2.631-.247 3.688-.687l-.188-1.625c-.881.42-2.064.687-3.187.687-2.333 0-3.525-1.262-3.438-4.187h7.156a7.76 7.76 0 00.063-.938c0-2.507-1.324-4.594-4.406-4.593zm12 0c-1.684.15-2.598 1.454-3 2.78h-.032c.175-.9.22-1.912.22-2.593h-1.907v10.938h1.969v-4.407c0-3.498 1.125-5.182 3.437-4.781l.063-1.938a3.64 3.64 0 00-.75 0zm24.062 0c-3.102 0-4.875 2.44-4.875 5.718 0 3.855 1.82 5.625 5.188 5.625 1.365 0 2.628-.247 3.687-.687l-.187-1.625c-.882.42-2.064.687-3.188.687-2.332 0-3.526-1.262-3.437-4.187h7.156a8.31 8.31 0 00.062-.938c0-2.507-1.323-4.594-4.406-4.593zm12 0c-1.682.15-2.595 1.454-3 2.78h-.062c.177-.9.25-1.912.25-2.593h-1.907v10.938h1.97v-4.407c0-3.498 1.124-5.182 3.437-4.781l.062-1.938a3.64 3.64 0 00-.75 0zm45.469 0c-1.68.15-2.596 1.454-3 2.78h-.031c.178-.9.25-1.912.25-2.593h-1.938v10.938h2v-4.407c0-3.498 1.096-5.182 3.406-4.781l.094-1.938a3.95 3.95 0 00-.781 0zm23.719 0c-3.103 0-4.875 2.44-4.875 5.718 0 3.855 1.815 5.625 5.187 5.625 1.359 0 2.633-.247 3.688-.687l-.188-1.625c-.881.42-2.064.687-3.187.687-2.334 0-3.526-1.262-3.438-4.187h7.156c.04-.375.063-.671.063-.938 0-2.507-1.323-4.594-4.406-4.593zm42.843 0c-3.1 0-4.906 2.44-4.906 5.718 0 3.855 1.819 5.625 5.188 5.625 1.362 0 2.631-.247 3.687-.687l-.156-1.625c-.881.42-2.066.687-3.188.687-2.336 0-3.556-1.262-3.468-4.187h7.156a7.51 7.51 0 00.062-.938c0-2.507-1.288-4.594-4.375-4.593zm11.97 0c-1.683.15-2.596 1.454-3 2.78h-.032c.179-.9.25-1.912.25-2.593h-1.938v10.938h2v-4.407c0-3.498 1.094-5.182 3.407-4.781l.093-1.938a3.95 3.95 0 00-.78 0zm7.062 0c-3.059 0-4.781 1.906-4.782 4.218 0 1.384.514 2.508 1.594 3.125-.775.354-1.218 1.072-1.219 1.844 0 .725.403 1.289 1.063 1.594-.968.51-1.813 1.542-1.813 2.844 0 2.087 1.808 3.218 4.625 3.218 3.438 0 5.813-1.816 5.813-4.125 0-1.982-1.34-3.125-3.719-3.125h-2.031c-1.32 0-1.875-.226-1.875-.843 0-.352.237-.707.719-.907.377.065.942.125 1.406.125 3.127 0 4.75-1.706 4.75-4.062 0-.923-.364-1.716-.938-2.156h1.844v-1.563h-3.719a7.393 7.393 0 00-1.718-.188zm17.406 0c-2.861 0-4.375 1.432-4.375 3.28 0 3.853 5.062 2.34 5.062 4.782 0 1.013-.987 1.688-2.437 1.688a8.222 8.222 0 01-2.406-.376l-.063 1.75c.684.133 1.499.22 2.313.22 2.907 0 4.687-1.518 4.687-3.5 0-3.674-5.125-2.35-5.125-4.75 0-.95.735-1.563 2.188-1.563.725 0 1.506.121 2.187.344l.063-1.657a11.2 11.2 0 00-2.094-.218zm31.906 0c-3.106 0-4.906 2.44-4.906 5.718 0 3.855 1.824 5.625 5.187 5.625 1.368 0 2.632-.247 3.688-.687l-.188-1.625c-.878.42-2.065.687-3.187.687-2.331 0-3.522-1.262-3.438-4.187h7.157a7.51 7.51 0 00.062-.938c0-2.507-1.291-4.594-4.375-4.593zm-21.687.03c-3.658 0-5.438 2.478-5.438 6 0 4.03 2.163 5.25 4.781 5.25 1.278 0 2.46-.275 3.188-.562l-.156-1.718c-.704.376-1.67.593-2.594.593-2.421 0-3.125-1.678-3.125-3.812 0-2.488 1.078-4.125 3.281-4.125.86 0 1.66.176 2.344.437l.219-1.718a9.39 9.39 0 00-2.5-.344zm-130.594.157v7.656c0 1.937.771 3.5 3.281 3.5 1.875 0 3.236-1.012 3.875-2.531l.031.031a16.105 16.105 0 00-.187 2.282h1.937V76.367h-1.968v5.281c0 2.42-1.322 4.25-3.125 4.25-1.429 0-1.875-.925-1.875-2.468v-7.063h-1.969zm111.031 0v10.938h1.969V76.367h-1.969zm-187.25 1.25c1.543 0 2.481 1.08 2.438 2.688h-5.125c.22-1.608 1.256-2.688 2.687-2.688zm36.063 0c1.538 0 2.484 1.08 2.437 2.688h-5.125c.22-1.608 1.256-2.688 2.688-2.688zm81.187 0c1.543 0 2.481 1.08 2.438 2.688h-5.094c.217-1.608 1.225-2.688 2.656-2.688zm42.813 0c1.542 0 2.481 1.08 2.437 2.688h-5.094c.222-1.608 1.228-2.688 2.657-2.688zm68.343 0c1.543 0 2.484 1.08 2.438 2.688h-5.094c.219-1.608 1.228-2.688 2.656-2.688zm-49.312.031c1.672 0 2.656.955 2.656 2.563 0 1.609-1.067 2.5-2.719 2.5-1.716 0-2.687-.873-2.687-2.5 0-1.475 1.011-2.563 2.75-2.563zm-154.531.125c.616 0 1.276.073 1.937.25v3.625c0 1.912-1.019 4.25-3 4.25-1.652 0-2.406-1.363-2.406-3.718 0-3.148 1.377-4.407 3.469-4.407zm124.375.032c1.651 0 2.406 1.33 2.406 3.687 0 3.144-1.381 4.406-3.469 4.406-.771 0-1.363-.076-1.937-.25v-3.625c0-1.897 1.016-4.218 3-4.218zm-187.532 4.468v.188c0 1.719-1.186 3.5-2.968 3.5-1.014 0-1.688-.605-1.688-1.531 0-.992.849-2.157 4.656-2.157zm216 5.157h2.813c1.54 0 2.281.66 2.281 1.718 0 1.343-1.287 2.282-3.531 2.282-1.719 0-2.969-.7-2.969-2 0-.833.546-1.56 1.406-2z" fill="#231f20"/><path style="marker:none" fill="#fff" overflow="visible" d="M1.392 35.792h67.505v29.906H1.392z"/><path d="M61.065 61.693h-8.087L49.32 45.615l-3.486 16.078h-2.93l-1.995-2.18s1.004-1.912 1.366-3.845h-2.282c-.218 1.04-.802 2.05-.802 2.05l-2.302-2.61s2.849-1.69 2.277-4.452c-.355-1.707-1.983-3.341-4.438-2.945-2.024.324-3.524 2.362-2.977 4.709.322 1.363 1.449 2.308 1.449 2.308s-3.777 2.185-3.221 5.695c.065.41.23.84.499 1.27h-5.39L21.43 45.615l-3.483 16.078H9.823L3.869 37.795h7.377l3.385 16.388 3.653-16.388h6.399l3.722 16.354 3.401-16.354h7.328l3.385 16.388 3.655-16.388h6.396l3.724 16.356 3.387-16.356h7.34l-5.956 23.898zm-27.15-10.105c-.036-.79.406-1.648 1.356-1.81.855-.138 1.508.516 1.652 1.267.298 1.535-1.57 2.596-1.57 2.596s-1.385-.883-1.438-2.053m.79 4.927l3.166 3.589c-1.024 1.655-2.565 1.674-2.565 1.674s-2.146.156-2.502-2.027c-.216-1.32.951-2.438 1.901-3.236M0 0l.001 70.888H70.89V0H0z" fill="#f84814"/></svg>