<svg xmlns="http://www.w3.org/2000/svg" width="494.451" height="353.523"><path d="M248.798 35.433c-42.23 0-76.444 34.215-76.444 76.444 0 17.446 5.856 33.475 15.659 46.36l63.497-83.534-6.781.062h-6.843c-7.213 0-14.056.493-18.926 1.418-2.96.616-5.61 1.664-7.768 3.205-2.589 1.788-5.733 5.549-7.83 9.248-.246.431-.554 1.11-.985 1.972l-3.761-.801 6.226-24.043h79.588l-63.19 84.581c4.07-.37 5.734-.431 9.063-.431 2.59 0 6.473.123 11.652.431l11.22.679c4.069.246 7.52.37 10.11.37 5.795 0 9.556-.432 13.316-1.603a28.436 28.436 0 008.138-3.946c4.438-3.082 8.754-8.014 11.343-12.946.246-.493.678-1.233 1.171-2.22l3.33.864c-1.049 4.13-1.665 5.733-3.33 9.494-3.39 7.582-7.213 12.7-12.514 16.583-5.425 4.007-11.405 5.98-18.495 6.103h-1.11c-5.24 0-9.308-.431-21.885-2.342-12.76-1.973-19.296-2.651-25.707-2.651-4.315 0-8.322.308-12.453.986-5.487.925-7.644 1.541-12.638 3.822 13.994 15.227 34.03 24.783 56.347 24.783 42.167 0 76.382-34.215 76.382-76.444 0-42.23-34.215-76.444-76.382-76.444" fill="#062c92"/><path d="M105.835 241.153H47.27l-7.213 15.906c2.404-1.295 3.329-1.727 5.425-2.59 3.329-1.294 7.028-2.342 10.542-2.959 3.082-.555 5.918-.801 10.48-.925 2.096-.061 4.007-.061 5.795-.061h8.692l-45.558 65.1h64.422l7.398-17.015c-2.589 1.48-3.514 1.973-5.486 2.898a52.242 52.242 0 01-12.022 3.637c-3.329.617-7.09.925-11.713 1.048-1.541.062-3.514.062-5.98.062H60.647l45.188-65.1M299.41 315.624c-1.17-1.048-1.54-1.48-2.28-2.65-.493-.74-.863-1.48-1.171-2.281-.679-1.665-1.048-4.193-1.048-6.535V259.34l.061-4.377c0-4.994.123-6.35.802-8.385.246-.801.554-1.602 1.048-2.342.74-1.295 1.294-1.85 2.774-3.083h-23.92c1.603 1.357 2.096 1.85 2.774 2.96.494.74.925 1.54 1.172 2.404.555 1.788.74 3.575.74 8.014.061 2.281.061 3.76.061 4.5v44.572c0 2.59-.493 5.425-1.171 7.213-.308.74-.74 1.48-1.171 2.158-.617.801-.987 1.294-2.281 2.65h23.61M374.19 241.77c-1.85-.617-2.527-.802-4.562-1.233-4.253-.925-8.384-1.295-13.07-1.295-8.013 0-14.918 1.233-21.206 3.946-3.76 1.54-7.213 3.637-10.234 6.041-9.185 7.398-14.179 18.125-14.179 30.454 0 11.96 4.809 22.317 13.563 29.283 7.274 5.672 16.645 8.57 27.865 8.57 7.028 0 13.5-1.049 20.899-3.33.246-.061.678-.184 1.17-.37v-13.562c-1.787 1.233-2.342 1.603-3.451 2.22-1.418.862-2.96 1.602-4.562 2.28-4.5 1.911-8.57 2.774-13.008 2.774-7.706 0-14.303-2.774-19.173-8.014-4.808-5.24-7.46-12.453-7.46-20.652 0-7.768 2.467-15.042 6.72-20.097 1.911-2.158 4.192-4.07 6.782-5.487 4.192-2.343 9.124-3.576 14.425-3.576 4.5 0 8.94.863 13.378 2.651 2.713 1.172 3.699 1.726 6.103 3.39V241.77M439.476 281.841v18.125c0 4.069-.062 5.548-.308 7.582-.124 1.172-.432 2.22-.802 3.206-.555 1.418-1.418 2.713-2.65 3.884-.247.247-.617.555-1.049.986h23.796c-.986-.986-1.356-1.418-2.034-2.342-.555-.802-1.048-1.603-1.356-2.405-.74-1.787-.925-3.082-.987-6.72-.061-2.219-.061-3.513-.061-3.883l.061-40.934v-4.44c0-3.266.247-5.794.863-7.89.247-.986.617-1.911 1.172-2.713.74-1.294 1.294-1.91 2.897-3.144h-24.29c1.419 1.172 1.912 1.665 2.713 3.021.555.863.987 1.726 1.233 2.59.617 1.725.802 3.945.802 7.829v18.124h-33.352v-13.624c0-4.069.062-6.781.185-8.816a11.84 11.84 0 01.616-3.205c.494-1.665 1.85-3.823 3.083-5.117l.801-.802h-23.858c1.418 1.48 1.788 1.911 2.466 2.836.494.802.925 1.603 1.295 2.528.616 1.91.74 2.959.801 7.89l.062 4.748v40.75c0 4.13-.062 5.979-.308 7.828-.124.987-.37 1.973-.74 2.96-.616 1.602-1.48 2.897-2.836 4.192-.185.185-.493.37-.863.74h23.611c-1.048-1.11-1.418-1.542-1.972-2.467-.494-.678-.863-1.48-1.233-2.342-.74-1.911-.987-3.33-1.048-6.473-.062-1.603-.062-3.083-.062-4.5V281.84h33.352M220.871 300.336c0 1.356.062 2.589.062 3.699.061 3.452.308 5.24.986 6.904.308.802.74 1.541 1.233 2.281.678.863.986 1.233 2.096 2.404h-23.673c1.356-1.294 1.788-1.726 2.466-2.589a9.071 9.071 0 001.295-2.404c.616-1.603.863-3.637.863-7.151v-48.887c0-3.946-.247-6.288-.74-7.953-.308-.925-.74-1.85-1.295-2.713-.74-1.048-1.233-1.602-2.527-2.774h19.234c2.343 0 4.685 0 6.905.062 5.918.185 9.37.555 12.7 1.295 4.808 1.11 9.061 3.513 12.144 6.72 3.329 3.513 5.055 7.644 5.055 12.206 0 1.91-.308 3.883-.925 5.733-1.11 3.39-2.959 6.041-5.856 8.507-2.651 2.158-5.487 3.822-9.186 5.302-1.356.555-1.911.74-3.329 1.171l11.59 13.563c1.356 1.664 3.206 3.699 5.425 6.103 3.452 3.76 5.795 6.165 8.446 8.63 1.11 1.049 2.158 2.035 3.206 2.898.924.863 1.417 1.295 2.712 2.281h-9.37c-1.357 0-2.651 0-3.884-.061-3.206-.124-5.24-.617-7.398-1.726-2.466-1.357-4.994-3.391-7.706-6.104a99.552 99.552 0 01-3.576-4.068c-1.418-1.603-2.466-2.775-3.144-3.576l-13.809-16.522v16.769zm1.233-22.995c1.048 0 2.343-.123 3.884-.37 4.007-.555 6.72-1.48 9.37-3.02a13.624 13.624 0 003.514-2.837c1.911-2.096 2.898-4.993 2.898-8.384 0-3.884-1.295-6.966-3.884-9.124-1.418-1.233-3.144-2.157-4.994-2.712-2.835-.802-6.411-1.233-10.048-1.233-.617 0-.987 0-1.973.061v27.557c.617 0 .863.062 1.233.062M189.43 241.153h-23.734c1.48 1.11 1.973 1.665 2.712 2.898.494.74.863 1.603 1.11 2.527.493 1.788.617 3.576.617 7.768v28.297c0 6.103-.124 9.678-.617 12.637-.308 1.973-.925 3.823-1.911 5.487-1.788 3.02-5.179 5.364-9.186 6.35-1.602.431-3.329.616-5.24.616-6.411 0-11.898-2.404-14.549-6.288-2.034-3.082-2.65-5.98-2.712-13.624l-.124-6.103v-22.44c0-4.377.062-6.473.247-8.693.062-1.294.247-2.465.555-3.39.493-1.726 1.788-4.007 3.02-5.425.124-.124.309-.308.555-.617h-24.166c1.48 1.233 1.973 1.788 2.713 3.021.431.801.801 1.665 1.048 2.59.246 1.109.431 2.28.493 3.39v4.624l.062 4.315v21.33c0 7.891 0 9.926.308 13.131.431 5.425 2.096 9.802 5.178 13.686 5.672 7.09 14.734 10.85 26.263 10.85 5.548 0 10.911-.863 14.98-2.404 4.315-1.541 8.26-4.192 11.097-7.398 3.452-3.822 5.425-8.569 6.041-14.425.309-3.391.493-7.46.493-13.316v-21.392l-.061-4.254v-.863c0-3.206.185-5.055.616-6.782a9.339 9.339 0 011.295-3.02c.801-1.295 1.356-1.85 2.897-3.083" fill="#06065d"/></svg>